<?xml version="1.0" encoding="UTF-8"?>
<svg id="Layer_1" data-name="Layer 1" xmlns="http://www.w3.org/2000/svg" viewBox="0 0 100 100">
  <path d="M90.65,86.39c-.18-.74-.53-1.4-.98-2.03-.67-.94-1.53-1.71-2.47-2.38-1.38-.96-8.68-3.38-8.83-3.4-1.45-.24-2.92-.42-4.41-.36-.76,.04-1.53,.11-2.29,.2-2.96,.4-5.77,1.29-8.52,2.47-2.74,1.2-5.36,2.65-7.79,4.39-.78,.56-1.54,1.16-2.31,1.76-.91,.69-1.82,1.36-2.81,1.92-1.16,.67-2.38,1.18-3.65,1.56-.96,.29-1.92,.51-2.91,.67-.65,.13-1.31,.2-1.98,.27-.65,.07-1.33,.16-1.98,.2-1.76,.11-3.52,.2-5.28,.05-.62-.04-1.23-.09-1.83-.16-1.83-.25-3.61-.67-5.28-1.51-1.18-.6-2.22-1.34-3.03-2.38-.16-.24-.33-.47-.49-.71-.42-.64-.4-1.31-.15-1.98,.15-.36,.35-.69,.58-.98,.47-.6,1.04-1.07,1.65-1.49,1-.65,2.09-1.13,3.21-1.51,1.04-.33,2.07-.56,3.12-.73,1.36-.2,2.72-.31,4.1-.35,.13,0,.25,.02,.4,.02,.05,.16,.04,.33,.05,.47,.02,.15,.04,.29,.05,.44,.07,.71,.11,1.43,.18,2.14,.07,.64,.15,1.27,.22,1.91,.04,.22,.05,.42,.09,.62,.02,.07,.05,.15,.07,.25,.09-.05,.15-.09,.2-.13,.67-.73,.96-1.62,.96-2.58,0-.89-.02-1.78-.04-2.67v-.38c.93-.09,4.41,.31,7.05,1.07,2.29,.67,4.45,1.58,6.47,2.81,.47-.2,1.74-1.14,2.12-1.58-.09-.07-.16-.16-.25-.24-1.4-1.11-2.94-1.98-4.59-2.65-1.27-.53-2.58-.93-3.92-1.22-.8-.18-1.62-.31-2.43-.42-1.11-.15-2.23-.22-3.36-.29-.27-.02-.54,0-.82,0-.09-.02-.18-.02-.27-.02-.02-.07-.04-.13-.04-.16-.04-1.47-.09-2.94-.13-4.39-.04-.89-.05-1.78-.09-2.67-.05-1.22-.11-2.45-.16-3.67-.02-.58-.07-1.16-.07-1.73-.02-.71,.05-1.42,.31-2.09,.2-.53,.49-1,.84-1.45,1.05-1.29,2.11-2.6,3.18-3.87,1.6-1.94,3.23-3.85,4.9-5.72,1.31-1.45,2.74-2.78,4.25-4.05l2.71-2.27c-.4-.76-.82-1.29-.93-1.2-1.91,1.4-3.69,2.92-5.34,4.61-2.61,2.67-5.16,5.41-7.68,8.17-.74,.8-1.49,1.62-2.22,2.42-.2,.22-.42,.42-.65,.56-.25,.16-.53,.24-.84,.18-.16-.04-.35-.09-.51-.18-.35-.16-.64-.4-.91-.65-.47-.45-.94-.91-1.4-1.4-1.53-1.63-3.03-3.31-4.56-4.94-2.4-2.58-4.79-5.16-7.17-7.74-.98-1.05-1.96-2.11-2.94-3.16-.07-.05-.15-.13-.16-.24h.09c.85,.27,1.71,.51,2.58,.69,.73,.16,1.45,.33,2.18,.45,.67,.13,1.33,.24,2,.35,.64,.09,1.27,.16,1.91,.24,.78,.07,1.56,.15,2.34,.2,.31,.04,.6,.02,.89,.11,.05,.15,.11,.29,.16,.45,.65,1.94,1.31,3.9,1.98,5.85,.04,.11,.11,.2,.16,.31-.16-.54-.31-1.11-.47-1.65-.44-1.53-.87-3.05-1.31-4.59-.04-.11-.09-.24-.07-.38,.15,0,.27,0,.42,.02,1.47,.05,2.94,.02,4.41-.04,.47-.04,.94-.05,1.42-.09,.62-.05,1.25-.13,1.87-.2,.89-.11,1.78-.22,2.67-.36,1.14-.18,2.27-.4,3.4-.65,1.87-.44,3.7-.96,5.5-1.65,1.49-.6,2.94-1.29,4.27-2.2,.89-.58,1.71-1.25,2.4-2.07,.67-.76,1.16-1.63,1.4-2.63,.02-.05,.02-.11,.02-.22l-.2,.2c-1.2,1.34-2.6,2.42-4.16,3.29-2.22,1.25-4.61,2.03-7.08,2.6-1.07,.24-2.14,.44-3.23,.58-.82,.09-1.63,.2-2.45,.29-.76,.07-1.53,.13-2.31,.16-.93,.05-1.85,.09-2.78,.11-2.05,.05-4.1,.04-6.16-.04-.09-.02-.16-.02-.27-.04-.04-.09-.05-.15-.09-.22-.24-.85-.47-1.69-.73-2.52-.02-.09,0-.18,0-.25,2.94-1.16,4.27-4.09,3.65-6.77-.33-1.4-1.07-2.52-2.22-3.38-1.4-1.04-2.98-1.33-4.69-1.02-.15-.35-.22-.69-.31-1.02-.11-.35-.24-.69-.29-1.07,.09-.02,.15-.04,.22-.04,.33-.05,.64-.11,.96-.16,.74-.15,1.49-.24,2.25-.29,1.05-.07,2.11-.13,3.18-.18,1.25-.05,2.51-.09,3.76-.13,1.45-.04,2.92-.02,4.38,.04,.67,.04,1.34,.07,2,.13,.58,.05,1.16,.15,1.76,.22,.96,.09,1.91,.27,2.83,.51,1.27,.31,2.49,.71,3.67,1.27,.04,.04,.09,.09,.18,.04-.05-.05-.09-.13-.16-.16-.27-.18-.53-.36-.82-.53-.65-.38-1.36-.65-2.09-.89-.98-.33-2-.56-3.03-.76-.49-.09-.98-.18-1.47-.25-.76-.09-1.53-.16-2.29-.25-1.02-.13-2.03-.18-3.05-.22-.45-.02-.91-.04-1.36-.02-1.25,0-2.49,.02-3.72,.04-.42,0-.84,.05-1.25,.07-.64,.05-1.29,.11-1.92,.16-.49,.05-1,.15-1.51,.2-.84,.09-1.65,.24-2.47,.4h-.27c-.04-.07-.05-.13-.07-.2-.22-.71-.42-1.42-.62-2.14-.42-1.42-.82-2.85-1.23-4.29-.4-1.42-.82-2.83-1.22-4.25-.54-1.92-1.09-3.83-1.63-5.76-.16-.51-.31-1.04-.54-1.51-.09-.15-.16-.29-.27-.44-.16-.2-.38-.31-.65-.31-.13,.02-.27,0-.42,0-.47,.02-.74,.29-.8,.76-.02,.31,0,.62,.09,.93,.07,.29,.15,.58,.24,.87,.73,2.11,1.43,4.21,2.16,6.34,1.14,3.32,2.29,6.66,3.43,9.99,.04,.11,.05,.22,.09,.31-.05,.04-.07,.05-.09,.07-.67,.16-1.33,.31-1.98,.49-2,.53-3.94,1.2-5.81,2.07-1.27,.58-2.47,1.25-3.6,2.05-.8,.58-1.53,1.2-2.14,1.96-.33,.4-.62,.82-.78,1.31-.22,.58-.38,1.18-.47,1.8-.09,.67-.05,1.33,.15,1.98,.22,.64,.53,1.2,.91,1.73,.54,.76,1.16,1.45,1.8,2.12,2.76,2.78,5.5,5.56,8.24,8.32,2.89,2.89,5.77,5.77,8.66,8.64,1.33,1.31,2.69,2.6,4.03,3.9,.22,.22,.44,.44,.67,.65,.87,.85,1.38,1.91,1.65,3.11,.2,.87,.31,1.76,.4,2.67,.07,.73,.13,1.47,.18,2.22,.09,1.27,.2,2.52,.29,3.8,.02,.24,.04,.47,.05,.71,.05,.6,.09,1.2,.13,1.8,.04,.54,.09,1.11,.13,1.67,.02,.09,0,.18-.02,.29-.27,.02-.53,.04-.8,.05-.78,.05-1.56,.09-2.34,.18-.73,.07-1.43,.18-2.16,.27-.91,.13-1.82,.29-2.71,.47-1.8,.4-3.49,1.09-5.03,2.07-.98,.64-1.87,1.36-2.6,2.25-.51,.64-.93,1.31-1.16,2.09-.15,.49-.24,1.02-.16,1.54,.11,.82,.44,1.53,.93,2.16,.38,.47,.82,.85,1.29,1.22,.87,.65,1.85,1.16,2.85,1.62,2.42,1.11,4.98,1.73,7.61,2.03,.89,.11,1.8,.18,2.69,.18h2.09c.29,0,.6-.02,.89-.02,.24-.02,.45-.02,.67-.04,.67-.07,1.34-.13,2.03-.2,.71-.07,1.42-.15,2.12-.25,1-.16,1.98-.36,2.98-.54,1.4-.25,2.74-.73,4.03-1.34,1.34-.67,2.58-1.47,3.81-2.32,1.49-1.04,2.98-2.11,4.49-3.14,1.87-1.29,3.81-2.42,5.87-3.38,1.13-.51,2.27-.94,3.47-1.23,1.31-.33,2.63-.51,3.98-.58,1.62-.07,3.21,.04,4.81,.27,.84,.15,1.65,.31,2.47,.54,.07,.02,3.27,1.14,3.32,1.18,1.13,.49,2.18,1.07,3.18,1.76,.76,.53,1.45,1.13,2.05,1.83,.4,.47,.73,.98,.94,1.56,.4,1.09,.24,2.11-.56,2.98-.29,.31-.62,.56-.96,.8-.58,.36-1.2,.64-1.85,.84-.87,.27-1.76,.45-2.67,.58-.85,.11-1.73,.16-2.58,.2-1.04,.04-2.07-.07-3.09-.24-.85-.15-1.71-.35-2.56-.58-1.53-.42-3.01-.94-4.47-1.53-3.12-1.27-6.14-2.8-9.04-4.5-.13-.07-.24-.15-.35-.2-.78,.42-2.16,1.29-2.38,1.53,.13,.05,.24,.13,.35,.18,1.51,.78,3.01,1.56,4.54,2.31,2.16,1.07,4.34,2.11,6.59,2.98,1.05,.42,2.11,.78,3.2,1.05,.74,.18,1.51,.35,2.27,.44,.54,.07,1.11,.16,1.67,.22,.56,.05,1.14,.07,1.71,.13,.98,.07,1.94,.02,2.91-.05,.62-.05,1.23-.16,1.85-.29,1.27-.25,2.51-.64,3.67-1.2,.87-.44,1.69-.94,2.42-1.6,.74-.69,1.33-1.47,1.69-2.43,.36-.98,.45-1.96,.18-3ZM14.05,37.07c-.67-.54-1.25-1.18-1.65-1.98-.27-.53-.44-1.11-.49-1.71-.05-.91,.22-1.71,.71-2.43,.45-.69,1.04-1.25,1.67-1.76,.76-.6,1.58-1.07,2.42-1.53,1.62-.82,3.31-1.45,5.03-1.96,.85-.25,1.73-.47,2.62-.73,.16,.31,.71,1.83,.78,2.23-.09,.05-.18,.11-.29,.18-1.27,.71-2.18,1.76-2.67,3.14-.29,.8-.38,1.63-.31,2.51,.16,2.09,1.58,4.14,3.85,4.94,.8,.27,1.63,.4,2.51,.29,.22-.04,.44-.05,.69-.09,.02,.04,.05,.09,.07,.15,.29,.84,.58,1.65,.85,2.49v.09c-.07,0-.15,.02-.22,.02-.56-.04-1.13-.05-1.69-.09-1.2-.09-2.4-.22-3.58-.36-1.02-.13-2.02-.29-3.01-.49-1.67-.35-3.31-.78-4.87-1.49-.85-.38-1.67-.84-2.42-1.42Z"/>
  <path d="M33.18,50.53s.03,.08,.05,.12c-.02,0-.03,0-.05,0,0-.05,0-.09,.01-.14,0,0,0,0,0,0Z"/>
  <path d="M33.28,50.92s.01,0,.02,.01c0,0-.02,.01-.03,.02,0,0,0-.02,0-.03Z"/>
</svg>